<?xml version="1.0" encoding="UTF-8"?>
<svg width="601" height="76" id="Layer_2" data-name="Layer 2" xmlns="http://www.w3.org/2000/svg" viewBox="0 0 564.83 119.58">
  <defs>
    <style>
      .cls-1 {
        fill: #ff1f5a;
      }

      .cls-2 {
        fill: #1abcfe;
      }

      .cls-3 {
        fill: #ffc702;
      }

      .cls-4 {
        fill: #fff;
      }
    </style>
  </defs>
  <g id="Layer_1-2" data-name="Layer 1">
    <g>
      <g>
        <g>
          <path  class="cls-4" d="m373.57,29.15V0h12.86c5.47,0,8.9,2.81,8.9,7.27,0,3.19-2.38,5.86-5.47,6.32v.16c3.96.3,6.87,3.19,6.87,7.05,0,5.13-3.86,8.34-10.08,8.34h-13.08Zm6.1-17.02h4.56c3.25,0,5.11-1.43,5.11-3.9s-1.64-3.68-4.48-3.68h-5.19v7.57Zm5.43,12.48c3.51,0,5.41-1.49,5.41-4.28s-1.96-4.18-5.55-4.18h-5.29v8.46h5.43Z"/>
          <path class="cls-4" d="m398.88,22.74c0-4.04,3.09-6.32,8.76-6.66l5.55-.34v-1.47c0-2.14-1.47-3.31-3.9-3.31-2.14,0-3.63,1.13-3.92,2.75h-5.39c.16-4.24,4-7.17,9.55-7.17s9.45,2.93,9.45,7.37v15.25h-5.69v-3.43h-.12c-1.21,2.32-3.96,3.7-6.8,3.7-4.28,0-7.49-2.69-7.49-6.66Zm14.32-1.76v-1.64l-4.66.32c-2.46.16-3.78,1.13-3.78,2.77s1.39,2.67,3.53,2.67c2.73,0,4.91-1.7,4.91-4.12Z"/>
          <path class="cls-4" d="m436.78,6.91h6.7l-8.56,9.55,8.97,12.68h-6.78l-6.5-9.13-1.6,1.72v7.41h-5.9V0h5.9v15.9h.08l7.69-8.99Z"/>
          <path class="cls-4" d="m466.47,29.15h-5.69v-4.02h-.12c-1.13,2.79-3.61,4.34-6.99,4.34-4.81,0-8.08-3.13-8.08-8.3V6.91h5.9v13.02c0,3.01,1.7,4.62,4.42,4.62s4.66-1.98,4.66-4.99V6.91h5.9v22.23Z"/>
        </g>
        <path class="cls-4" d="m384.8,41.16c8.74,0,13.89,5.21,13.89,14.46s-5.15,14.68-13.89,14.68h-11.23v-29.14h11.23Zm-5.13,24.09h4.4c5.45,0,8.4-3.31,8.4-9.61s-3.03-9.45-8.4-9.45h-4.4v19.06Z"/>
        <path class="cls-4" d="m422.34,63.52c-.65,4.3-4.66,7.17-10.08,7.17-6.76,0-10.9-4.34-10.9-11.41s4.16-11.59,10.68-11.59,10.48,4.28,10.48,11.05v1.82h-15.35v.36c0,3.21,2.08,5.37,5.19,5.37,2.22,0,3.98-1.05,4.54-2.77h5.43Zm-15.1-6.62h9.59c-.1-2.91-2-4.81-4.72-4.81s-4.66,1.96-4.87,4.81Z"/>
        <path class="cls-4" d="m434.62,47.69c5.49,0,9.15,2.81,9.23,7.05h-5.45c-.12-1.76-1.6-2.87-3.86-2.87-2.12,0-3.53.95-3.53,2.38,0,1.11.97,1.86,2.97,2.32l4.18.91c4.46,1.01,6.24,2.73,6.24,6.04,0,4.32-3.98,7.17-9.79,7.17s-9.53-2.83-9.83-7.11h5.75c.28,1.88,1.8,2.93,4.24,2.93s3.78-.91,3.78-2.36c0-1.15-.77-1.76-2.79-2.24l-4.1-.93c-4.18-.95-6.34-3.11-6.34-6.36,0-4.18,3.68-6.93,9.31-6.93Z"/>
        <path class="cls-4" d="m447.34,43.04c0-1.76,1.43-3.07,3.17-3.07s3.19,1.31,3.19,3.07-1.43,3.09-3.19,3.09-3.17-1.33-3.17-3.09Zm.22,5.02h5.9v22.23h-5.9v-22.23Z"/>
        <path class="cls-4" d="m457.46,71.51h5.82c.38,1.47,2.24,2.4,4.56,2.4,2.99,0,4.95-1.53,4.95-4.04v-3.62h-.12c-1.07,2.38-3.67,3.9-6.89,3.9-5.41,0-9.05-4.2-9.05-11.05s3.51-11.31,9.15-11.31c3.19,0,5.71,1.6,6.89,4.06h.1v-3.8h5.82v21.37c0,5.29-4.3,8.64-10.98,8.64-5.84,0-9.93-2.56-10.24-6.56Zm15.35-12.36c0-4-1.98-6.58-5.05-6.58s-4.99,2.54-4.99,6.56,1.92,6.46,4.99,6.46,5.05-2.46,5.05-6.44Z"/>
        <path class="cls-4" d="m482.69,48.07h5.69v3.98h.12c1.27-2.81,3.74-4.3,7.15-4.3,4.93,0,7.92,3.11,7.92,8.3v14.26h-5.9v-13.02c0-2.95-1.57-4.62-4.36-4.62s-4.73,2.02-4.73,4.97v12.68h-5.9v-22.23Z"/>
        <path class="cls-4" d="m392.29,104.39h-10.24l-2.22,7.07h-6.26l10.12-29.14h7.17l10.14,29.14h-6.48l-2.22-7.07Zm-8.93-4.56h7.61l-3.74-11.93h-.14l-3.74,11.93Z"/>
        <path class="cls-4" d="m417.33,97.43c-.32-2.3-1.94-3.94-4.5-3.94-3.03,0-4.95,2.58-4.95,6.85s1.92,6.85,4.97,6.85c2.48,0,4.12-1.35,4.5-3.8h5.49c-.34,5.17-4.22,8.46-10.06,8.46-6.64,0-10.88-4.36-10.88-11.51s4.24-11.49,10.84-11.49c5.98,0,9.79,3.63,10.08,8.58h-5.49Z"/>
        <path class="cls-4" d="m424.89,105.06c0-4.04,3.09-6.32,8.76-6.66l5.55-.34v-1.47c0-2.14-1.47-3.31-3.9-3.31-2.14,0-3.63,1.13-3.92,2.75h-5.39c.16-4.24,4-7.17,9.55-7.17s9.45,2.93,9.45,7.37v15.25h-5.69v-3.43h-.12c-1.21,2.32-3.96,3.7-6.8,3.7-4.28,0-7.49-2.69-7.49-6.66Zm14.32-1.76v-1.64l-4.66.32c-2.46.16-3.78,1.13-3.78,2.77s1.39,2.67,3.53,2.67c2.73,0,4.91-1.7,4.91-4.12Z"/>
        <path class="cls-4" d="m448.13,100.31c0-6.97,3.59-11.35,9.13-11.35,3.21,0,5.69,1.6,6.8,4.06h.12v-10.71h5.9v29.14h-5.82v-3.8h-.1c-1.09,2.44-3.65,4.06-6.93,4.06-5.53,0-9.11-4.4-9.11-11.41Zm6.04.02c0,4.08,1.96,6.62,5.03,6.62s5.03-2.58,5.03-6.6-1.98-6.62-5.03-6.62-5.03,2.56-5.03,6.6Z"/>
        <path class="cls-4" d="m494.34,104.67c-.65,4.3-4.66,7.17-10.08,7.17-6.76,0-10.9-4.34-10.9-11.41s4.16-11.59,10.68-11.59,10.48,4.28,10.48,11.05v1.82h-15.35v.36c0,3.21,2.08,5.37,5.19,5.37,2.22,0,3.98-1.05,4.54-2.77h5.43Zm-15.1-6.62h9.59c-.1-2.91-2-4.81-4.72-4.81s-4.66,1.96-4.87,4.81Z"/>
        <path class="cls-4" d="m497.69,89.23h5.69v4.04h.12c.95-2.69,3.37-4.36,6.34-4.36,3.19,0,5.45,1.64,6.2,4.54h.12c1.01-2.79,3.68-4.54,6.91-4.54,4.36,0,7.29,2.97,7.29,7.45v15.1h-5.9v-13.63c0-2.6-1.31-4.04-3.72-4.04s-3.88,1.7-3.88,4.22v13.45h-5.69v-13.85c0-2.38-1.37-3.82-3.65-3.82s-3.94,1.78-3.94,4.3v13.37h-5.9v-22.23Z"/>
        <path class="cls-4" d="m534.75,119.5v-4.56c.2.04,1.09.06,1.33.06,2.2,0,3.47-.77,3.94-2.54l.2-.85-7.79-22.37h6.46l4.81,17.45h.12l4.83-17.45h6.22l-7.69,22.68c-1.9,5.67-4.62,7.67-10.18,7.67-.22,0-2.02-.04-2.24-.08Z"/>
        <path class="cls-4" d="m557.88,92.68c0-1.91,1.55-3.45,3.48-3.45s3.48,1.54,3.48,3.45-1.55,3.45-3.48,3.45-3.48-1.54-3.48-3.45Zm6.02,0c0-1.42-1.12-2.55-2.54-2.55s-2.55,1.13-2.55,2.55,1.13,2.54,2.55,2.54,2.54-1.13,2.54-2.54Zm-3.93,1.52v-3.17h1.66c.71,0,1.18.41,1.18,1.02,0,.47-.26.84-.66.95l.83,1.2h-1.02l-.69-1.08h-.44v1.08h-.85Zm.85-1.7h.61c.3,0,.47-.14.47-.4s-.16-.39-.46-.39h-.63v.79Z"/>
      </g>
      <g>
        <path class="cls-1" d="m42.47,0h26.57C92.48,0,111.51,19.03,111.51,42.47v26.57c0,23.44-19.03,42.47-42.47,42.47H0V42.47C0,19.03,19.03,0,42.47,0Z" transform="translate(111.51 0) rotate(90)"/>
        <path class="cls-3" d="m163.57,0h26.57C213.58,0,232.61,19.03,232.61,42.47v26.57c0,23.44-19.03,42.47-42.47,42.47h-69.04V42.47C121.1,19.03,140.13,0,163.57,0Z" transform="translate(353.71 111.51) rotate(180)"/>
        <path class="cls-2" d="m242.18,0h69.04C334.66,0,353.69,19.03,353.69,42.47v26.57c0,23.44-19.03,42.47-42.47,42.47h-26.57c-23.44,0-42.47-19.03-42.47-42.47V0h0Z" transform="translate(595.87 111.51) rotate(-180) " />
      </g>
    </g>
  </g>
</svg>