<?xml version="1.0" encoding="UTF-8"?>
<svg width="601" height="76" id="Layer_2" data-name="Layer 2" xmlns="http://www.w3.org/2000/svg" viewBox="0 0 353.69 111.51">
  <defs>
    <style>
      .cls-1 {
        fill: #f2f2f2;
      }
    </style>
  </defs>
  <g id="Layer_1-2" data-name="Layer 1">
    <g>
      <path class="cls-1" d="m42.47,0h26.57C92.48,0,111.51,19.03,111.51,42.47v26.57c0,23.44-19.03,42.47-42.47,42.47H0V42.47C0,19.03,19.03,0,42.47,0Z" transform="translate(111.51 0) rotate(90)"/>
      <path class="cls-1" d="m163.57,0h26.57C213.58,0,232.61,19.03,232.61,42.47v26.57c0,23.44-19.03,42.47-42.47,42.47h-69.04V42.47C121.1,19.03,140.13,0,163.57,0Z" transform="translate(353.71 111.51) rotate(180)"/>
      <path class="cls-1" d="m242.18,0h69.04C334.66,0,353.69,19.03,353.69,42.47v26.57c0,23.44-19.03,42.47-42.47,42.47h-26.57c-23.44,0-42.47-19.03-42.47-42.47V0h0Z" transform="translate(595.87 111.51) rotate(-180)"/>
    </g>
  </g>
</svg>