<svg width="17" height="31" viewBox="0 0 17 31" fill="none" xmlns="http://www.w3.org/2000/svg">
<path d="M7.608 30.68V26.552L8.248 27.16C6.69067 27.1387 5.22933 26.9147 3.864 26.488C2.49867 26.04 1.304 25.3893 0.28 24.536L1.368 21.912C2.05067 22.4453 2.75467 22.8933 3.48 23.256C4.22667 23.6187 5.016 23.896 5.848 24.088C6.70133 24.2587 7.61867 24.344 8.6 24.344C10.3067 24.344 11.5653 24.024 12.376 23.384C13.1867 22.744 13.592 21.9227 13.592 20.92C13.592 20.0667 13.304 19.3947 12.728 18.904C12.1733 18.392 11.2027 17.9867 9.816 17.688L6.52 16.984C4.6 16.5573 3.16 15.864 2.2 14.904C1.24 13.9227 0.76 12.6213 0.76 11C0.76 9.74133 1.05867 8.62133 1.656 7.64C2.27467 6.65867 3.128 5.88 4.216 5.304C5.32533 4.728 6.616 4.39733 8.088 4.312L7.608 4.76V0.759998H10.232V4.76L9.688 4.312C10.8827 4.35467 12.0667 4.6 13.24 5.048C14.4133 5.47467 15.4053 6.11467 16.216 6.968L15.16 9.496C14.328 8.68533 13.3893 8.088 12.344 7.704C11.2987 7.29867 10.1467 7.096 8.888 7.096C7.416 7.096 6.232 7.448 5.336 8.152C4.46133 8.856 4.024 9.77333 4.024 10.904C4.024 11.7573 4.30133 12.4507 4.856 12.984C5.41067 13.496 6.296 13.8907 7.512 14.168L10.808 14.872C12.856 15.2987 14.3813 15.992 15.384 16.952C16.3867 17.8907 16.888 19.1387 16.888 20.696C16.888 21.912 16.5787 22.9893 15.96 23.928C15.3413 24.8453 14.488 25.5813 13.4 26.136C12.3333 26.6693 11.096 27 9.688 27.128L10.232 26.52V30.68H7.608Z" fill="white"/>
</svg>
